<svg xmlns="http://www.w3.org/2000/svg" xmlns:xlink="http://www.w3.org/1999/xlink" viewBox="0,0,256,256" width="28px" height="28px" fill-rule="nonzero"><g fill="none" fill-rule="nonzero" stroke="none" stroke-width="none" stroke-linecap="none" stroke-linejoin="miter" stroke-miterlimit="10" stroke-dasharray="" stroke-dashoffset="0" font-family="none" font-weight="none" font-size="none" text-anchor="none" style="mix-blend-mode: normal"><g transform="scale(4,4)"><path d="M48.005,24.013c0,-2.761 2.239,-5 5,-5v0c2.761,0 5,2.239 5,5v8h-10z" fill="#fcab29" stroke="none" stroke-width="1" stroke-linecap="butt"></path><path d="M5.433,35.881l9.672,12.922c2.455,3.279 6.312,5.21 10.408,5.21h21.492c6.075,0 11,-4.925 11,-11v-15h-39v8.513l-1.647,-2.221c-2.551,-3.535 -7.463,-4.377 -11.045,-1.893l-0.353,0.245c-1.056,0.732 -1.294,2.194 -0.527,3.224z" fill="#fcab29" stroke="none" stroke-width="1" stroke-linecap="butt"></path><path d="M49.005,24.013v11c0,2.761 -2.239,5 -5,5v0c-2.761,0 -5,-2.239 -5,-5v-11c0,-2.761 2.239,-5 5,-5v0c2.761,0 5,2.239 5,5z" fill="#fcab29" stroke="none" stroke-width="1" stroke-linecap="butt"></path><path d="M39.005,24.097v11c0,2.761 -2.239,5 -5,5v0c-2.761,0 -5,-2.239 -5,-5v-11c0,-2.761 2.239,-5 5,-5v0c2.761,0 5,2.239 5,5z" fill="#fcab29" stroke="none" stroke-width="1" stroke-linecap="butt"></path><path d="M28.983,10.013v20h-10v-20c0,-2.761 2.239,-5 5,-5v0c2.761,0 5,2.239 5,5z" fill="#fcab29" stroke="none" stroke-width="1" stroke-linecap="butt"></path><ellipse cx="34.891" cy="61" rx="23.092" ry="3" fill="#000000" stroke="none" stroke-width="1" stroke-linecap="butt" opacity="0.3"></ellipse><path d="M23.983,5.013c-2.761,0 -5,2.239 -5,5v18c2.761,0 5,-2.239 5,-5l-0.006,-13h0.006c1.846,0 3.44,-1.012 4.306,-2.5c-0.866,-1.488 -2.46,-2.5 -4.306,-2.5z" fill="#ffffff" stroke="none" stroke-width="1" stroke-linecap="butt" opacity="0.3"></path><path d="M22.784,13.524v-3.517c0,-0.551 0.449,-1 1,-1" fill="none" stroke="#ffffff" stroke-width="3" stroke-linecap="round"></path><path d="M58.005,43.013v-13v0c-2.761,0 -5,2.239 -5,5v8c0,3.309 -2.691,6 -6,6h-6.022c-2.761,0 -5,2.239 -5,5h11.022c6.075,0 11,-4.925 11,-11z" fill="#000000" stroke="none" stroke-width="1" stroke-linecap="butt" opacity="0.15"></path></g></g></svg>